# xmcd CD database file
#
# Track frame offsets:
#	150
#	17030
#	41318
#	62233
#	89806
#	112027
#	128953
#	145509
#
# Disc length: 2260 seconds
#
# Revision: 0
# Processed by: cddbd v1.5.2PL0 Copyright (c) Steve Scherf et al.
# Submitted via: CDex 1.70beta2
#
DISCID=6d08d208
DTITLE=Laith Al-Saadi - REAL
DYEAR=2013
DGENRE=Blues
TTITLE0=Gone
TTITLE1=What it means
TTITLE2=Ophelia
TTITLE3=How it's gonna be
TTITLE4=Complete disgrace
TTITLE5=Last time you'll see me cry
TTITLE6=Gone (alternate take)
TTITLE7=What it means (alternate take)
EXTD=YEAR: 2013
EXTT0=
EXTT1=
EXTT2=
EXTT3=
EXTT4=
EXTT5=
EXTT6=
EXTT7=
PLAYORDER=
